# xmcd CD database file
#
# Track frame offsets:
#	150
#	24063
#	48483
#	75805
#	98406
#	122857
#	148860
#	167723
#	194501
#	222495
#	246418
#	266326
#
# Disc length: 3883 seconds
#
# Revision: 0
# Processed by: cddbd v1.4PL0 Copyright (c) Steve Scherf et al.
# Submitted via: CDex 1.40Release
#
DISCID=9f0f290c
DTITLE=Traditional Native American Music - Spirit of the Wind
DYEAR=1999
DGENRE=Native American
TTITLE0=Kisaka (Rejoice)
TTITLE1=Cheyenne Chief
TTITLE2=Lene Tawi (Flute Song)
TTITLE3=Mourning Song for a Chief
TTITLE4=Klawulacha (Totem)
TTITLE5=Father-Sun
TTITLE6=Spirit Dance
TTITLE7=Ockaya
TTITLE8=Mountain Chant
TTITLE9=Moons Lullaby
TTITLE10=Navajo Pride
TTITLE11=Turquoise
EXTD=YEAR: 1999 ID3G: 64
EXTT0=
EXTT1=
EXTT2=
EXTT3=
EXTT4=
EXTT5=
EXTT6=
EXTT7=
EXTT8=
EXTT9=
EXTT10=
EXTT11=
PLAYORDER=
